<?xml version="1.0" encoding="utf-8"?>
<!-- Generator: Adobe Illustrator 25.1.0, SVG Export Plug-In . SVG Version: 6.00 Build 0)  -->
<svg version="1.1" id="Layer_1" xmlns="http://www.w3.org/2000/svg" xmlns:xlink="http://www.w3.org/1999/xlink" x="0px" y="0px"
	 viewBox="0 0 366 372" style="enable-background:new 0 0 366 372;" xml:space="preserve">
<style type="text/css">
	.st0{fill:url(#SVGID_1_);fill-opacity:0.8;}
</style>
<linearGradient id="SVGID_1_" gradientUnits="userSpaceOnUse" x1="111.0001" y1="-55.9024" x2="111.0001" y2="316.0972" gradientTransform="matrix(1 0 0 -1 0 374)">
	<stop  offset="0.2764" style="stop-color:#8DC933"/>
	<stop  offset="0.3334" style="stop-color:#82C63B"/>
	<stop  offset="0.4345" style="stop-color:#64BD50"/>
	<stop  offset="0.5668" style="stop-color:#33AF73"/>
	<stop  offset="0.6297" style="stop-color:#1AA785"/>
</linearGradient>
<path class="st0" d="M68.2,0.1L69.9,0c1.1,0.5,2.2,1.1,3.3,1.4c0.8,0.2,1.5,0.7,2,1.3c0.6,0.6,1,1.3,1.2,2.1c0.1,0.6,0.5,1.2,1,1.5
	c0.5,0.4,1.1,0.5,1.8,0.4c3.1-0.1,4.9,1.9,4.5,5c-0.1,0.7-0.2,1.3-0.4,2c-0.1,0.2-0.1,0.4-0.1,0.7c0,0.2,0.1,0.4,0.2,0.6
	c0.1,0.2,0.2,0.4,0.4,0.5c0.2,0.1,0.4,0.3,0.6,0.3c0.9,0.4,1.7,0.9,2.4,1.7c0.6,0.8,1.1,1.7,1.2,2.6c0.4,2,1.8,3.2,2.9,4.6
	c1.5,1.8,2.3,4,3.7,5.7c3.1,3.7,2.5,8,2.7,12.3c0.1,1.9,0.1,3.8,0,5.8c0,0.4,0,1,0.7,0.9c0.7-0.1,0.5-0.6,0.5-1c0-0.9-0.8-2,0.6-2.6
	c0.3-0.1,0.7-0.2,1.1-0.1c0.4,0,0.7,0.2,1,0.4c0.3,0.2,0.6,0.5,0.7,0.8c0.2,0.3,0.3,0.7,0.3,1c0.3,2,0.3,4.1,0,6.2
	c-0.7,3.7-0.2,7.3,0,10.9c2.5-0.7,3.5,0.1,3.4,2.8c-0.1,2.2-0.1,4.5-0.1,6.7c0,0.5,0,1-0.2,1.4c-0.2,0.5-0.4,0.9-0.8,1.2
	c-1.4,1.2-1.3,2.7-1,4.2c0.1,0.4,0.1,0.9,0,1.3c-0.3,1-0.4,1.7,1,1.6c1-0.1,1.3,0.8,1.4,1.5c0.3,2.1,0.2,4.2-0.2,6.3
	c-0.3,1.5-0.2,3,0.2,4.4c0.3,1.3,0,2.6-0.1,3.9c-0.1,1.6-0.3,3.1-0.3,4.7c0,1.4,0.2,2.7,1.4,3.8c0.9,0.8,0.9,2,1.1,3.1
	c0.4,2.8,0.7,5.5,0.8,8.3c0.1,2,1.8,1.3,2.7,1.7c1,0.4,0.6-0.7,0.7-1.2c0.6-3.1,1.9-3.6,4.3-1.4c1.8,1.6,3,3.6,2.9,6.3
	c-0.1,2.2,0.4,4.5-0.1,6.8c-0.1,0.3-0.1,0.6,0,0.9c0.1,0.3,0.2,0.6,0.5,0.8c0.9,0.8,1.5,1.9,1.9,3c0.4,1.1,0.6,2.3,0.5,3.5
	c-0.1,3.3-0.4,6.7,0.1,10c0.2,1.1-0.1,2.2-0.6,3.2c1.4-0.2,2.6,0,3.2,1.3c0.2,0.4,0.7,0.4,0.8,0.1c0.3-1.2,1.4-0.9,2.2-1.4
	c1.3-0.8,2.9-1.4,3.4-3.1c0.5-1.5,2.2-1.7,3-3.1c0.8-1.4,1.3-3,1.4-4.7c0.1-2.3,1.4-3.9,2.7-5.5c1.3-1.5,2.6-3.2,4-4.7
	c0.5-0.5,0.7-1.2,0.8-1.9c0.2-2.2,1.3-4,2.4-5.9c1-1.8,1.7-3.7,3.6-4.9c0.5-0.3-0.1-1.1,0.2-1.6c1.3-2.3,2-4.9,3-7.3
	c0.8-1.8,3.6-2.1,5.4-1.4c4,1.6,5.1,5.2,6.4,8.6c0.7,2,2,3.7,3.8,4.9c0.8,0.6,1.5,2,2.5,1.6c0.6-0.3,0.8-1.7,1.1-2.7
	c0.3-0.9,0.5-2,0.3-2.9c-0.1-1-0.5-1.9-1.1-2.7c-1-1.2-1.5-2.8-1.5-4.4c0-1.6,0.5-3.1,1.5-4.4c0.7-0.9,1.4-1.2,2.3-0.3
	c0.2,0.2,0.4,0.4,0.6,0.5c0.4,0.3,0.7,0.7,1.2,0.5c0.4-0.2,0.4-0.9,0.3-1.4c-0.3-1.5-1-3-1.9-4.2c-2.5-3.1-3.1-6.4-1.4-10.3
	c0.9-2.2,1.7-4.7,1.3-7.2c-0.2-1.3,0-2.6-0.6-4.1c-0.8-2-0.2-4.5,0.4-6.7c0.5-1.8,1.6-0.5,2.5,0c0.6-1.3,1.3-2.4,0.8-3.9
	c-0.2-0.6,0.2-1.2,0.4-1.8c0.2-0.7,0.6-1.3,0.1-2.3c-0.7-1.6,2.5-4.8,4.2-4.4c0.5,0.1,1.1,0.6,1.4-0.1c0.2-0.3,0.2-0.6,0.2-0.9
	s-0.1-0.6-0.2-0.9c-0.5-0.8-0.8-1.7-0.7-2.6c0-0.9,0.3-1.8,0.8-2.6c0.3-0.6,0.7-1,1.2-1.3c1.7-0.7,2.9-2.1,4.3-3.2
	c1.2-0.8,2.4-1.4,3.7-1.8c0.9-0.4,2-0.6,1.1-2.2c-0.7-1.3,0.1-2.8,1.1-3.7c1-1,2.4-2.1,4.1-1.4c1.1,0.4,1.5,0,1.7-0.9
	c0.3-1.4,1-2.7,1.1-4.2c0-0.4,0.1-0.8,0.3-1.1c0.2-0.3,0.6-0.6,0.9-0.7c0.8-0.2,1.2,0.4,1.6,1c0.4,0.7,1.3,0.8,1.9,1.3
	c0.8,0.7,1.4,1.7,1.7,2.8c0.7,2.6,2.6,4.3,4.6,5.9c0.5,0.4,1,0.9,1.3,1.5c0.1,0.3,0.3,0.5,0.6,0.7c0.2,0.2,0.5,0.3,0.8,0.4
	c1.9,0.4,2.4,1.7,1.6,3.5c-0.2,0.5-0.4,0.9-0.5,1.4c-0.2,0.8,0,1.2,1,1.2c3.9,0,5,1.8,3.1,5.2c-0.7,1.2-1.1,2.3-0.3,3.6
	c0.2-0.2,0.4-0.3,0.6-0.5c0.7-0.5,1.2-1.8,2.3-1.2c1.1,0.7,2.3,1.5,2.3,3.1c0.1,1.2-0.2,2.3-0.9,3.3c-0.5,0.5-0.8,1.2-0.8,2
	c0,0.7,0.2,1.5,0.7,2c0.8,1,0.3,2.1,0.1,3.2c-0.1,0.8-0.5,1.6,0.7,1.9c0-0.4,0.1-0.9,0.2-1.3c0.3-0.7,0.1-1.8,1.2-1.7
	c0.9,0.1,1.4,0.8,1.7,1.8c0.4,1.4,0,2.9,0,4.3c0.1,3.7,0,7.4-0.4,11c0,0.1,0,0.3,0,0.4c0,0.1,0.1,0.2,0.2,0.3
	c0.1,0.1,0.2,0.2,0.3,0.2c0.1,0,0.3,0,0.4,0c0.6,0,1.1,0.1,1.6,0.3c0.5,0.2,1,0.5,1.4,0.9c0.4,0.4,0.7,0.9,0.9,1.4
	c0.2,0.5,0.3,1.1,0.2,1.6c-0.3,2.3-0.4,4.7-0.3,7.1c0.1,1.7,0.4,3.3,1.6,4.7c1.4,1.5,0.6,3.4,0.3,5c-0.5,3.2-0.3,6.5-1.1,9.6
	c-0.2,0.9,0.3,1.6,1,2.2c2,1.7,2.6,4,2.4,6.5c-0.2,1.9-0.4,3.8-0.8,5.6c-0.2,0.6-0.2,1.3,0,1.9c0.2,0.6,0.6,1.1,1.1,1.5
	c2.2,1.5,2.3,3.6,1.6,5.8c-1,3.2-0.5,6.4-0.3,9.6c0,0.2,0,0.4,0.1,0.6c0.1,0.2,0.2,0.4,0.3,0.5c0.1,0.1,0.3,0.2,0.5,0.3
	c0.2,0.1,0.4,0.1,0.6,0.1c0.9,0,1.8-0.6,2.5,0.3c1,1.2,1.9,2.4,2,4.1c0.2,2.7,0.6,5.4,1,8.1c0.1,0.4,0.1,0.8,0.5,0.9
	c2.2,0.4,2.1,2.2,2.3,3.8c0.2,1.1,0.3,2,1.8,1.7c0.4-0.1,0.9,0.1,1,0.5c0.1,1.3,1.2,2.2,1.4,3.5c0.3,3.1,1.3,6.2,1.2,9.4
	c0,0.8,0.2,1.2,1.1,1.1c0.7-0.1,1.4,0.3,2.2,0.4c1.1,0.1,2.4,0.6,2.6-1.3c0.1-0.8,0.8-1,1.8-0.6c2.6,1.2,3.7,3.3,4.4,5.8
	c1.1,3.6,3.4,6.8,4.1,10.6c0.2,1.1,0.4,2.1,0.7,3.2c0.1,0.5-0.2,1.6,1,1.3c0.8-0.2,1.4-0.4,1.6-1.6c0.1-1.2,0.3-2.3,0.8-3.3
	c0.5-1,1.2-2,2-2.7c1.3-1,2.9-1.4,4.5-1.3c2.8,0.1,5.3,1.7,8.1,1.2c5.4-1,10.8,0,16.2-1c2.2-0.4,4.5-0.3,6.6-1.5
	c1.4-0.8,3.4-0.5,5.2-0.2c2.2,0.4,4.2,1.2,6.3,1.7c1,0.3,2.2,0.1,2.9,1c0.5,0,0.5,1.3,1.3,0.6c0.3-1.6,1-0.4,1.3-0.1
	c0.7,0.7,1.1,0.9,1.9,0.1c0.5-0.6,1.4-0.2,2.1-0.2c0.3,0,0.6,0.4,0.7,0.3c1.7-0.8,3.6-0.6,5.4-1.4c1.1-0.6,2.4-1,3.6-1.2
	c0.7-0.1,1.3,0.1,1.9,0.5c0.5,0.4,0.9,1,1.1,1.6c0.1,0.5,0.2,1.2,0.5,1.6c2.2,1.9,2.2,4.7,3,7.2c0.5,1.7,1.1,3.4,1.9,5
	c0.6,1.3,1.3,1.4,2.4,0.5c1-0.8,1.9-1.7,2.4,0.4c0,0.2,0.3,0.3,0.5,0.4c2.6,1.2,3.8,3.6,5.4,5.8c0.2,0.4,0.4,0.8,0.5,1.2
	c0.6,3.2,1.6,6.3,1.9,9.5c0.3,3.2,0.8,6.1,0.8,9.2c0,3.9,0.1,7.8-0.4,11.6c-0.2,1.3,0.5,2.6,0.7,3.9c0.7,3.2,1.1,6.5,1.2,9.8
	c0,4,0.6,8.1,0.1,12.2c-0.6,4.8-0.8,9.7-0.7,14.5c0.1,5.5,1.8,56.6,2.2,62l0.1,2.7l0,2.7c-0.1,0.7-0.2,1.4-0.4,2.2
	c-0.1,0.7-0.5,1.4-1,1.9c-0.5,0.5-1.2,0.8-1.9,0.8c-2.7,0.2-5.3,0.1-8-0.2c-6.6-0.5-13.3-0.2-19.9,0.7c-4.8,0.8-9.7,1.2-14.6,1.4
	c-3.3,0.1-6.7-0.2-10-0.1c-3.6,0.1-7.2,0-10.8,0.1c-4.1,0-8.3,0.3-12.5-0.2c-2-0.3-3.9,0.2-5.8,0c-1.4-0.2-3,0-4.4-0.1
	c-1-0.1-2.1,0-3.1,0.3c-0.3,0.1-0.6,0.3-0.8,0.2c-2.2-1-4.5-0.4-6.8-0.7c-1.8-0.2-3.6,0.3-5.5,0.1c-4.9-0.6-9.8-0.3-14.7,0
	c-2.5,0.2-4.9,0.8-7.5,0.5c-1.9-0.3-3.8,0-5.8-0.2c-2.6-0.1-5.2,0-7.9,0.2c-2.6,0.2-5.3-0.2-7.9,0c-9,0.6-18,0.7-27,1.3
	c-5.8,0.3-11.6,0.7-17.5,0.3c-1.6,0-3.1,0.1-4.6,0.4c-1.4,0.3-2.9-0.1-4.3-0.2c-4.4-0.1-8.8-0.6-13.3-0.8c-5.5-0.2-11-0.5-16.5-0.5
	c-4,0-8,0.1-12,0.4c-3.4,0.2-6.8-0.1-10.2,0.3c-2.7,0.3-5.4-0.2-8.1,0.2c-0.8,0.1-1.6-0.1-2.4,0h-0.5c-0.2,0-0.4,0-0.6,0
	c-0.2,0.1-0.4,0.2-0.6,0.3c-0.1,0-0.2,0-0.3,0c-2.1-0.7-4.3-0.9-6.4-0.6c-0.6-0.8-1.4,0.3-2-0.3c-0.4-0.4-0.8,0-1.2,0.1
	c-0.6,0.1-1.2,0.1-1.8,0.1c-0.7-0.1-1.3-0.1-2,0c-1.5,0.3-3.2,0-4.5-0.8c-1.2-0.3-2.4-0.6-3.4,0.4c-0.2,0.2-0.4,0.3-0.6,0.1
	c-1.6-1.4-3.1-0.8-4.7,0.2c-0.3,0.1-0.5,0.2-0.8,0.2c-0.3,0-0.5-0.1-0.8-0.2c-0.6-0.2-1.3-0.3-1.9-0.1c-1.6,0.3-2.9-0.2-4.3-0.8
	c-1-0.3-2.1-0.4-3.1-0.5c-4.8-0.6-9.6-1.2-14.5-1c-6.5,0.3-12.9,0.6-19.4,0.6c-3.9,0-7.8,0.4-11.7,0.6c-0.9,0-1.9,0-2.9,0.1
	c-6.5,0.6-13-0.1-19.5,0.5c-4.9,0.4-9.7-0.4-14.6-0.5c-6.3-0.1-12.6-0.5-19-0.5c-3.6,0-7.2-0.6-10.7-1.1c-5.6-0.7-11.2-0.9-16.8-0.6
	c-4.5,0.2-9,0.1-13.4,0.5c-3.5,0.3-7,0-10.4,0.2c-2.8,0.3-5.5,0.4-8.3,0.1c-0.8-0.1-1.6,1-2.6,0.2c0,0-0.4,0.1-0.4,0.2
	c-0.1,1.3-0.5,0.9-1,0.2c-0.3-0.5-1-0.1-1.4-0.4c-0.4,0-0.3,0.6-0.7,0.6h-0.4c-0.5-0.3-1.1-0.4-1.7-0.5c-0.6,0-1.2,0-1.7,0.2
	c-5.5,0.5-10.9,0.1-16.3-0.2c-2.9-0.2-6-0.4-9,0.3c-0.7,0.1-1.4,0.2-2.2,0.2c-2.4-0.1-3.6-1.4-3.5-4c0-0.6-0.1-1.2-0.2-1.8
	c-0.8-4.6-0.2-9.2-0.4-13.8c-0.3-4.9,0-55.7-0.4-60.7c-0.1-1.4-0.8-2.9-0.3-4.4c0.2-0.7-1.1-0.9-0.5-1.7c0.1-0.1,0.1-0.4,0.2-0.4
	c1.1-0.5-0.3-0.4-0.2-0.6c-0.2-1.4,0.5-2.8,0.5-4.2c0-1.7-0.1-3.5-0.1-5.3c-0.2-3.1,0.1-6.2-0.6-9.2c-0.2-1,0.3-2,0.3-3.2
	c-0.1-2.8-0.4-5.6,0.2-8.4c0.2-1.1-0.1-2.3-0.2-3.5c-0.3-3.7,0.3-7.4-0.4-11.1c0-0.3-0.1-0.6-0.1-0.8c-0.1-1.3,1.3-2.2,0.5-3.8
	c-0.6-1.1-0.5-2.9-0.2-4.3c0-0.1,0-0.2,0-0.3c0-0.1-0.1-0.2-0.2-0.3c-2.1-2-0.7-4.5-1.1-6.8c-0.5-2.3-0.3-4.7,0.6-6.9
	c0.1-0.2,0.2-0.4,0.2-0.6c-0.1-1.1,0-2.1,0.3-3.2c0.3-1,0.9-1.9,1.7-2.7c2.7-2.8,1.2-6.2,2-9.2c0.4-1.5,0.7-3,1-4.6
	c0.1-0.5,0.3-0.9,0.7-1.2c0.4-0.3,0.9-0.4,1.3-0.4c1.9-0.1,2.3-1.4,2.4-2.8c0.3-3.3,0.2-6.5-2-9.3c-0.6-0.8,0.2-1.5,0.7-1.9
	c0.8-0.6,1.3-1.4,2-1.9c0.3-0.3,0.6-0.7,0.7-1.1c0.6-1.8-0.1-3.4-0.7-5.1c-0.7-1.9-0.2-2.9,1.3-3.2c0.7,0.1,1.5,0.4,2.1-0.4
	c1.1-0.1,0.9-1,1-1.6c0.2-1.5,0.2-3.1,0.2-4.7c0-0.8-0.2-1.3-1.1-1.1c-0.7,0.1-1.4,0.1-1.3-0.8c0-0.2,0-0.4,0.1-0.6
	c0.1-0.2,0.2-0.3,0.3-0.5c0.1-0.1,0.3-0.2,0.5-0.3c0.2-0.1,0.4-0.1,0.6,0c1.3,0.3,1.4-0.5,1.6-1.3c0.4-1.8,1.2-3.4,0.6-5.4
	c-0.5-1.8,0.8-3,2.7-3.2c0.9-0.1,1.7-0.3,2-1.3c0.6-2,0.8-4,0.4-6c-0.2-0.6-0.1-1.2,0.2-1.8c0.3-0.5,0.8-1,1.4-1.1
	c1.3-0.5,1.7-1.5,1-2.6c-0.9-1.4-0.7-2.3,0.5-3.3c0.8-0.7,1.4-1.8,2.7-2c0.5-0.1,0.6-0.4,0.4-0.9c-0.5-1.9,1.3-4.7,3.2-5.1
	c0.9-0.2,1-0.9,1.2-1.6c0.1-1.1,0.7-2,1.4-2.8c2.2-1.6,2.9-4,4.1-6.2c0.3-0.6,0.9-1.2,1.5-1.5c0.6-0.3,1.4-0.5,2.1-0.4
	c1.6,0.1,3.2,0.4,4.6,1.1c1.4,0.7,2.7,1.6,3.8,2.8c1.3,1.2,2.3,2.6,3.1,4.1c-0.3,1.1,0.1,2.2,0,3.2c0.1-0.3-0.1-0.8,0.3-1.1
	c0.5-1.3,0.5-2.7,0-3.9c-0.6-1.8-0.9-3.6-1-5.5c-0.2-2,0.2-2.4,2.2-2.1c0.8,0.1,0.9-0.4,0.8-0.9c-0.4-2.3,0.4-4.8-1.8-6.7
	c-0.3-0.3-0.5-0.7-0.6-1.1c-0.1-0.4-0.1-0.9,0.1-1.3c0.6-1.4,0.9-2.9,1-4.4c0-1,0.9-0.9,1.7-0.8c2.7,0.4,2.7,0.4,2.5-2.5
	c-0.2-3.1-0.1-6.1,0.2-9.2c0.1-0.8,0.1-1.6-0.2-2.3c-0.9-1.9,1.2-3,1.2-4.7c1.8,0.2,1.6-1.1,1.7-2.2c0.1-1,0.6-2.3,0.7-3.4
	c0.1-1.4,0.4-2.9,0.9-4.2c0.5-1.1,1.8-1.7,2.4-2.9c0.5-0.8,0.8-1.7,1-2.6c0-0.3,0.1-0.6,0.3-0.8c0.1-0.3,0.3-0.5,0.6-0.7
	c1.5-1.4,2.5-3.4,3.7-5.1c1.8-2.5,3.9-4.7,6.2-6.7c1.7-1.4,2.7-2.9,3-5.1c0.3-3.4,1.1-4,4.1-4.3c1.4-0.2,2.8-0.1,4.1,0.2
	c1.5,0.4,1.6,2.1,2.3,3.2c0.3,0.5,0.4,1.1,0.3,1.7c0,0.6-0.2,1.2-0.5,1.7c-0.1,0.1-0.1,0.2-0.2,0.4c0,0.1,0,0.3,0,0.4
	c0,0.1,0.1,0.3,0.2,0.4c0.1,0.1,0.2,0.2,0.3,0.3c1.6,1.5,3.3,3,4.9,4.4c3.2,2.8,5.7,6.3,7.2,10.2c1,2.5,2.9,4.3,4.2,6.6
	c1.3,2.2,2.4,4.4,3.4,6.7c0.2,0.4,0.2,0.9,0.6,0.9c1.9-0.1,1.5,1.3,1.8,2.4c0.6,2,1.7,4.1,0.8,6.1c-1.1,2.6-0.8,5.2-1,7.9
	c-0.1,1.1,0.1,2.1,0.4,3.1c0.1,0.3,0.2,0.6,0.5,0.7c0.2,0.2,0.5,0.3,0.8,0.2c2.2,0,3.9,2.4,3.1,4.4c-1.1,2.4,0,5-0.8,7.4
	c-0.1,0.3,0.3,0.5,0.4,0.7c1.8,2.3,2.2,5.1,0.4,7.5c-1,1.4-0.9,2.8-1,4.3c0,0.7,0.2,1.4,0.2,2.1c0,0.4-0.1,1.4,1,0.8
	c0.1-0.1,0.5,0.1,0.6,0.2c0.2,1.7,2,2.9,1.5,4.8c-0.6,2.6-1.2,5.1-1.8,7.7c-0.2,0.5-0.2,1.1,0,1.6c0.8,1.4,0.4,3.5,2.1,4.6
	c0.1,0.1,0.2,0.3,0.3,0.5c0.1,0.2,0.1,0.4,0.1,0.6c-0.2,2.5,0.3,4.9-0.4,7.4c-0.7,2.5-0.2,4.9-0.5,7.3c0,0.3,0,0.7,0,1
	c-0.4,1.4,0.3,1.6,1.4,1.6c1.9,0.1,2.9,1.5,2.4,3.4c-0.5,1.5-0.6,3.1-0.4,4.6c0.2,1,0.2,1.4,1.6,1.5c6.1,0.4,12.3-0.1,18.4,0.1
	c2.3,0.1,2.3,0,2.3-2.3c0-3.5,0.6-7,1.7-10.3c0.4-1-0.2-2.3,1.4-2.9c0.6-0.2,0.3-1.5,0.3-2.4c-0.1-1.2,0-2.6,1.2-2.8
	c0.6-0.1,1.3,0,1.9,0.3c0.6,0.3,1,0.8,1.2,1.4c0.5,1.2,1.4,2.3,2.6,2.9c1.2,0.7,2.5,0.9,3.9,0.7c1-0.1,2-0.2,3-0.2
	c5.2-0.1,5.4-2,5.7-6.3c0.3-4.2-0.5-8.4,0.3-12.5c0.8-3.7,0.7-7.5,1.6-11.2c0.5-1.3,0.1-2.9,1.6-3.8c0.5-0.2,1.1-0.6,1.5-0.1
	c1.5,1.8,3.6,1.2,5.4,1.4c0.7,0,1.3,0,2-0.1c0.7,0,0.8-0.4,0.8-1.1c-0.1-3.7-0.1-7.5-0.1-11.2c0-0.3,0-0.5-0.2-0.8
	c-1.3-1.7-1.1-3.2-1-5.2c0.1-1.2,1.5-1.3,1.1-2.6c-0.4-1.2-0.2-2.5-0.3-3.8c-0.1-1.3-0.2-2.4-0.2-3.6c-0.1-1.7-0.9-3.3-0.7-5.1
	c0-0.4,0.1-0.8,0.3-1.2c0.2-0.4,0.5-0.6,0.9-0.8c0.9-0.4,0.9-1,0.9-1.9C38,81,37.9,78.8,38,76.7c0.1-1.5,0.7-2.9-0.4-4.4
	c-0.8-1.1-0.2-2.6-0.3-3.9c-0.1-1.2,1-1.1,1.8-1.1c2.6,0,2.4,0,2.7-2.6c0.5-3.9-0.7-7.6-0.6-11.5c0-1.2,0-2.1,1.6-1.4
	c0.7,0.3,1.2-0.2,1.6-0.7c0.3-0.5,0.5-1,0.5-1.5c0-0.5,0-1.1-0.2-1.6c-0.1-0.3-0.2-0.5-0.5-0.7c-2-1.2-0.7-3.1-0.9-4.7
	c0-0.2,0.1-0.3,0.2-0.4c2.4,0.5,1.8-1.7,1.8-2.5c-0.1-2.4,1.7-3.7,2.8-5.4c0.2-0.3,0.5-0.5,0.8-0.6c1.3-1,2.6-1.9,2-3.9
	c-0.3-0.9,0.1-1.9,1.1-2.7c1-0.8,1.8-1.8,2.7-2.7c1.1-1,2.4-1,3.8-0.7c0.3-0.2,0.3-0.4,0-0.6c-0.9-0.8-2.4-1.4-2.2-2.7
	c0.2-1.1,1.7-1.2,2.7-1.4c2.2-0.3,1.8-2,2.1-3.3c0.1-0.3,0.2-0.6,0.2-0.8c0-0.3-0.1-0.6-0.2-0.8c1.9-2.3,4.3-4.2,5.3-7.1
	c0.6-0.4,0.1-0.9,0.1-1.3c0.1-0.3,0-0.8,0.2-0.9c1.3-0.7,1.2-1.7,0.9-2.8c0-0.3,0-0.7,0.1-1C67.8,0.6,68,0.3,68.2,0.1z"/>
<image style="overflow:visible;" width="338" height="508" xlink:href="Tree Cambodia.png"  transform="matrix(1.1982 0 0 1.0257 -143.9998 -152)">
</image>
</svg>
