<?xml version="1.0" encoding="utf-8"?>
<!-- Generator: Adobe Illustrator 25.1.0, SVG Export Plug-In . SVG Version: 6.00 Build 0)  -->
<svg version="1.1" id="Layer_1" xmlns="http://www.w3.org/2000/svg" xmlns:xlink="http://www.w3.org/1999/xlink" x="0px" y="0px"
	 viewBox="0 0 444 323" style="enable-background:new 0 0 444 323;" xml:space="preserve">
<style type="text/css">
	.st0{fill:url(#SVGID_1_);}
</style>
<linearGradient id="SVGID_1_" gradientUnits="userSpaceOnUse" x1="471.8665" y1="-63.0781" x2="105.9063" y2="299.8947">
	<stop  offset="0.109" style="stop-color:#8DC932"/>
	<stop  offset="0.1979" style="stop-color:#73C144"/>
	<stop  offset="0.3849" style="stop-color:#41B367"/>
	<stop  offset="0.527" style="stop-color:#23AA7D"/>
	<stop  offset="0.6065" style="stop-color:#17A785"/>
</linearGradient>
<path class="st0" d="M11.4,1c9.9,11.4,26.1,14.9,34.5,27.7c9.6,14.6,6.4,37.7,19.4,48.7c13.3,11.3,33.1,0.9,49,6.9
	c26.3,9.9,25.1,54.4,47.2,73.1c27,22.8,67.1-6.8,99.2,5.6c35.1,13.5,43.9,69.7,78.6,84.5c29.1,12.4,60.9-10.6,91.8-6.8
	c18.1,2.2,34.3,13.4,49.3,24.9c23.7,18.2,55.4,43.1,85.4,27.1L547.7-91.5c-10.1-1.6-21.4,0.4-31.5,2.7
	c-133.4,30.3-271.3,35.1-406.5,14c-17.6-2.7-35.4-5.9-53.1-3.9c-17.7,2-35.5,10-46,25.7C0.1-37.4-0.9-13.2,11.4,1z"/>
</svg>
